<svg xmlns="http://www.w3.org/2000/svg" width="20" height="20" viewBox="0 0 20 20"><defs><clipPath id="jlyia"><path fill="#fff" d="M20 10c0 5.523-4.477 10-10 10S0 15.523 0 10 4.477 0 10 0s10 4.477 10 10z"/></clipPath></defs><g><g><path fill="#9d5cd0" d="M20 10c0 5.523-4.477 10-10 10S0 15.523 0 10 4.477 0 10 0s10 4.477 10 10z"/><path fill="none" stroke="#fff" stroke-miterlimit="20" stroke-width="2" d="M20 10c0 5.523-4.477 10-10 10S0 15.523 0 10 4.477 0 10 0s10 4.477 10 10z" clip-path="url(&quot;#jlyia&quot;)"/></g></g></svg>