<svg xmlns="http://www.w3.org/2000/svg" width="40" height="40" viewBox="0 0 40 40"><defs><linearGradient id="5yuwa" x1="20" x2="20" y1="0" y2="39.7" gradientUnits="userSpaceOnUse"><stop offset="0" stop-color="#2aabee"/><stop offset="1" stop-color="#229ed9"/></linearGradient></defs><g><g><g/><g><g><path fill="url(#5yuwa)" d="M20 40c11.046 0 20-8.954 20-20S31.046 0 20 0 0 8.954 0 20s8.954 20 20 20z"/></g><g><path fill="#fff" d="M9.053 19.789l11.664-5.024c5.554-2.31 6.708-2.712 7.46-2.725.166-.003.536.038.775.233.203.164.258.386.285.541.027.156.06.51.033.788-.3 3.162-1.603 10.837-2.266 14.379-.28 1.498-.832 2-1.366 2.05-1.162.107-2.044-.768-3.169-1.505l-4.463-2.998c-1.975-1.301-.695-2.016.43-3.185.295-.306 5.413-4.96 5.512-5.383.012-.053.024-.25-.093-.354-.117-.104-.29-.068-.414-.04-.177.04-2.99 1.899-8.437 5.576-.798.548-1.52.815-2.169.801-.714-.015-2.087-.403-3.108-.735-1.253-.407-2.248-.623-2.162-1.314.045-.36.541-.729 1.488-1.105z"/></g></g></g></g></svg>