<svg xmlns="http://www.w3.org/2000/svg" width="40" height="40" viewBox="0 0 40 40"><g><g><g/><g><path fill="#30bf39" d="M20.005 39.38c10.7 0 19.375-8.675 19.375-19.375S30.705.63 20.005.63.63 9.304.63 20.005c0 10.7 8.674 19.375 19.375 19.375z"/></g><g><path fill="#fff" d="M25.87 21.747c-.25-.125-1.563-.875-1.813-.937-.25-.125-.437-.125-.624.125-.188.25-.75.875-.875 1-.188.188-.313.188-.563.063-.25-.126-1.125-.438-2.125-1.438-.75-.75-1.313-1.625-1.438-1.938-.124-.25 0-.437.126-.562.125-.125.25-.313.437-.438.188-.125.188-.25.313-.437.125-.188.062-.313 0-.5-.063-.188-.563-1.5-.75-2.063-.188-.562-.438-.437-.563-.5-.188 0-.313-.062-.5-.062-.25 0-.563.125-.75.312-.25.25-1 .875-1 2.188 0 1.313.875 2.688 1 2.813.125.187 1.75 3.062 4.438 4.25 2.687 1.187 2.687.812 3.187.812s1.625-.625 1.875-1.188c.25-.625.25-1.187.188-1.25-.125 0-.313-.062-.563-.25zm-5 6.438c-1.75 0-3.375-.5-4.813-1.438l-3.374 1.063 1.125-3.25c-1.063-1.5-1.688-3.313-1.688-5.188a8.802 8.802 0 0 1 8.813-8.812c4.875 0 8.75 3.937 8.75 8.812a8.802 8.802 0 0 1-8.813 8.813zm0-19.375c-5.813 0-10.563 4.75-10.563 10.562 0 1.938.5 3.813 1.5 5.438L9.87 30.498l5.875-1.876c1.563.875 3.313 1.313 5.125 1.313 5.813 0 10.563-4.75 10.563-10.563 0-5.812-4.688-10.562-10.563-10.562z"/></g></g></g></svg>