<svg xmlns="http://www.w3.org/2000/svg" width="188" height="42" viewBox="0 0 188 42"><g><g><g><path fill="#fff" d="M3.022 34.499l-2.71-3.837H2.27l1.841 2.745 1.856-2.745h1.944l-2.718 3.837 2.857 4.007H6.106L4.11 35.57l-1.987 2.936H.18zm5.218-3.837h1.87l1.644 4.447c.249.633.414 1.23.497 1.787h.059c.043-.26.124-.574.24-.943.118-.374.736-2.137 1.857-5.291h1.856l-3.457 8.887c-.628 1.631-1.675 2.447-3.142 2.447-.38 0-.75-.04-1.11-.12v-1.32c.258.057.553.085.884.085.828 0 1.41-.466 1.746-1.397l.3-.738zm17.003 10.617h-1.6v-2.773h-5.54v2.773h-1.585v-4.064h.658c.575-.799 1.03-1.763 1.366-2.893.341-1.135.543-2.355.607-3.66h4.91v6.553h1.184zm-2.872-4.064v-5.277h-1.739a13.998 13.998 0 0 1-.584 2.88c-.293.946-.65 1.745-1.074 2.397zM33.91 34.57c0 1.281-.339 2.281-1.016 3-.677.719-1.62 1.078-2.828 1.078-.755 0-1.422-.166-2.002-.496a3.316 3.316 0 0 1-1.337-1.426c-.312-.62-.467-1.338-.467-2.156 0-1.272.336-2.265 1.008-2.979.672-.714 1.62-1.071 2.842-1.071 1.17 0 2.095.366 2.777 1.1.682.727 1.023 1.711 1.023 2.95zm-5.882 0c0 1.81.69 2.716 2.068 2.716 1.364 0 2.046-.905 2.046-2.716 0-1.792-.687-2.688-2.061-2.688-.72 0-1.245.231-1.571.695-.322.463-.482 1.128-.482 1.993zm11.844-.1v-3.808h1.6v3.809l3.113-3.81h1.812l-3.178 3.795 3.463 4.05H44.79l-3.318-3.979v3.98h-1.6v-3.98l-3.31 3.98h-1.885l3.456-4.05-3.17-3.795h1.811zm11.59 4.178c-1.258 0-2.242-.355-2.953-1.064-.706-.714-1.06-1.695-1.06-2.943 0-1.282.33-2.289.987-3.022.658-.733 1.561-1.099 2.71-1.099 1.068 0 1.91.314 2.53.943.618.63.927 1.494.927 2.596v.9h-5.385c.024.762.236 1.348.636 1.76.4.406.962.61 1.687.61.478 0 .921-.043 1.33-.128.414-.09.858-.236 1.33-.44v1.355a5.383 5.383 0 0 1-1.271.411c-.429.08-.918.121-1.469.121zm-.315-6.866c-.546 0-.984.168-1.315.504-.327.336-.522.825-.585 1.468h3.668c-.01-.648-.17-1.137-.482-1.468-.312-.336-.74-.504-1.286-.504zm8.666 6.866c-1.223 0-2.153-.345-2.791-1.036-.634-.695-.95-1.69-.95-2.985 0-1.32.331-2.334.994-3.043.667-.71 1.629-1.064 2.886-1.064.852 0 1.62.154 2.302.461l-.52 1.34c-.725-.274-1.324-.41-1.797-.41-1.398 0-2.097.9-2.097 2.701 0 .88.173 1.542.519 1.986.35.44.862.66 1.534.66.765 0 1.488-.185 2.17-.553v1.454c-.306.175-.635.3-.986.375a6.017 6.017 0 0 1-1.264.114zm10.222-7.986v1.305h-2.63v6.54H65.68v-6.54h-2.631v-1.305zm8.571 2.007c0 .927-.557 1.487-1.673 1.68v.058c.624.07 1.101.262 1.432.574.332.312.497.717.497 1.213 0 .742-.292 1.314-.877 1.716-.58.398-1.424.596-2.535.596H71.59v-7.844h3.843c2.114 0 3.171.669 3.171 2.007zM77.1 36.095c0-.379-.15-.646-.453-.802-.302-.16-.755-.24-1.359-.24h-1.98v2.219h2.024c1.179 0 1.768-.392 1.768-1.177zm-.212-3.284c0-.312-.126-.537-.38-.674-.248-.142-.62-.213-1.118-.213h-2.082v1.887h1.827c.575 0 1.01-.071 1.308-.213.297-.146.445-.409.445-.787zm4.326 4.773c-.706-.714-1.06-1.695-1.06-2.943 0-1.282.33-2.289.987-3.022.658-.733 1.561-1.099 2.71-1.099 1.068 0 1.91.314 2.529.943.619.63.928 1.494.928 2.596v.9h-5.385c.024.762.236 1.348.636 1.76.399.406.962.61 1.687.61.478 0 .921-.043 1.33-.128.414-.09.858-.236 1.33-.44v1.355a5.383 5.383 0 0 1-1.271.411c-.429.08-.918.121-1.469.121-1.257 0-2.24-.355-2.952-1.064zm2.638-5.802c-.546 0-.984.168-1.315.504-.327.336-.522.825-.585 1.468h3.668c-.01-.648-.17-1.137-.482-1.468-.312-.336-.74-.504-1.286-.504zm7.124-1.12v3.149h3.807v-3.15H96.5v7.845h-1.717v-3.383h-3.807v3.383H89.26v-7.844zm9.704 0v3.149h3.807v-3.15h1.717v7.845h-1.717v-3.383h-3.807v3.383h-1.717v-7.844zm13.043 7.844l-.344-1.092h-.058c-.39.477-.782.804-1.177.979-.394.17-.901.255-1.52.255-.794 0-1.415-.208-1.863-.624-.443-.416-.665-1.005-.665-1.766 0-.809.31-1.419.928-1.83.619-.411 1.562-.636 2.828-.674l1.396-.042v-.419c0-.501-.122-.875-.366-1.12-.238-.251-.611-.376-1.118-.376-.414 0-.811.059-1.191.177s-.745.258-1.096.418l-.555-1.191c.438-.222.918-.39 1.439-.504a6.696 6.696 0 0 1 1.476-.177c1.028 0 1.803.218 2.324.653.526.435.789 1.118.789 2.05v5.283zm-2.558-1.135c.624 0 1.123-.168 1.498-.503.38-.34.57-.816.57-1.426v-.68l-1.038.042c-.808.028-1.398.16-1.768.397-.365.232-.548.589-.548 1.071 0 .35.107.622.322.816.214.189.536.283.964.283zm7.008 1.135h-1.922l2.25-3.213c-.545-.151-.974-.42-1.286-.808-.311-.393-.467-.877-.467-1.454 0-.743.272-1.322.818-1.738.546-.42 1.291-.631 2.236-.631h3.683v7.844h-1.725v-3.021h-1.629zm.248-5.461c0 .402.156.704.468.908.316.198.74.298 1.271.298h1.6v-2.327h-1.87c-.468 0-.831.097-1.089.291-.253.194-.38.47-.38.83zm16.631-2.383v1.305h-3.508v6.54h-1.717v-7.845zm6.612 7.844l-.343-1.092h-.058c-.39.477-.782.804-1.177.979-.394.17-.901.255-1.52.255-.794 0-1.415-.208-1.863-.624-.443-.416-.665-1.005-.665-1.766 0-.809.309-1.419.928-1.83.619-.411 1.561-.636 2.828-.674l1.395-.042v-.419c0-.501-.121-.875-.365-1.12-.239-.251-.611-.376-1.118-.376-.414 0-.811.059-1.191.177s-.745.258-1.096.418l-.555-1.191c.438-.222.918-.39 1.439-.504a6.682 6.682 0 0 1 1.476-.177c1.028 0 1.803.218 2.324.653.526.435.789 1.118.789 2.05v5.283zm-2.557-1.135c.623 0 1.123-.168 1.498-.503.38-.34.57-.816.57-1.426v-.68l-1.038.042c-.808.028-1.398.16-1.768.397-.365.232-.548.589-.548 1.071 0 .35.107.622.321.816.215.189.536.283.965.283zm12.824 1.135h-1.732v-6.54h-2.229c-.136 1.684-.321 2.999-.555 3.944-.229.946-.531 1.636-.906 2.071-.37.435-.853.653-1.447.653-.375 0-.689-.052-.942-.156v-1.305c.18.066.36.099.54.099.497 0 .887-.541 1.169-1.624.288-1.088.512-2.75.673-4.986h5.429zm5.991.142c-1.256 0-2.24-.355-2.952-1.064-.706-.714-1.059-1.695-1.059-2.943 0-1.282.329-2.289.986-3.022.658-.733 1.562-1.099 2.711-1.099 1.067 0 1.91.314 2.528.943.619.63.928 1.494.928 2.596v.9h-5.385c.024.762.236 1.348.636 1.76.399.406.962.61 1.688.61.477 0 .92-.043 1.33-.128.414-.09.857-.236 1.329-.44v1.355a5.363 5.363 0 0 1-1.271.411c-.429.08-.918.121-1.469.121zm-.314-6.866c-.545 0-.984.168-1.315.504-.326.336-.521.825-.585 1.468h3.668c-.009-.648-.17-1.137-.482-1.468-.312-.336-.74-.504-1.286-.504zm9.506 6.866c-1.023 0-1.817-.357-2.382-1.071h-.102c.068.662.102 1.064.102 1.206v3.213h-1.717V30.662h1.389c.039.146.119.496.241 1.05h.087c.536-.795 1.34-1.192 2.412-1.192 1.008 0 1.792.355 2.353 1.064.565.71.847 1.704.847 2.986 0 1.281-.287 2.281-.862 3-.57.719-1.359 1.078-2.368 1.078zm-1.914-6.185c-.312.388-.468 1.007-.468 1.859v.248c0 .955.156 1.648.468 2.078.312.425.821.638 1.527.638.595 0 1.052-.236 1.374-.709.321-.473.482-1.147.482-2.021 0-.88-.161-1.544-.482-1.993-.317-.454-.784-.681-1.403-.681-.682 0-1.181.194-1.498.581zm7.716 5.121c-.706-.714-1.059-1.695-1.059-2.943 0-1.282.328-2.289.986-3.022.658-.733 1.561-1.099 2.711-1.099 1.067 0 1.91.314 2.528.943.619.63.928 1.494.928 2.596v.9h-5.385c.024.762.236 1.348.636 1.76.399.406.962.61 1.688.61.477 0 .92-.043 1.329-.128.414-.09.858-.236 1.33-.44v1.355a5.377 5.377 0 0 1-1.271.411c-.429.08-.918.121-1.469.121-1.257 0-2.241-.355-2.952-1.064zm2.638-5.802c-.546 0-.984.168-1.315.504-.327.336-.521.825-.585 1.468h3.668c-.009-.648-.17-1.137-.482-1.468-.312-.336-.74-.504-1.286-.504zm6.233 6.724h-1.922l2.251-3.213c-.546-.151-.975-.42-1.286-.808-.312-.393-.468-.877-.468-1.454 0-.743.273-1.322.818-1.738.546-.42 1.291-.631 2.236-.631h3.683v7.844h-1.724v-3.021h-1.63zm.248-5.461c0 .402.156.704.468.908.317.198.74.298 1.271.298h1.601v-2.327h-1.871c-.468 0-.831.097-1.089.291-.253.194-.38.47-.38.83z"/></g><g><path fill="#fff" d="M0 0h12.375c4.666 0 7.05 1.9 7.05 5.57v.081c0 2.696-1.37 4.352-3.99 4.84v.292c3.127.535 4.75 2.42 4.75 5.52v.066c0 4.173-2.553 6.365-7.54 6.365H0zm10.887 9.305c2.384 0 3.567-1.023 3.567-3.037v-.065c0-1.98-1.183-2.988-3.567-2.988h-5.9v6.09zm.152 10.198c2.62 0 3.922-1.218 3.922-3.621v-.065c0-2.355-1.301-3.557-3.922-3.557H4.987v7.243zM29.802 0v22.734h-4.92V0zm10.294 23.156c-3.567 0-5.562-1.607-5.562-4.433v-.048c0-3.573 3.178-5.034 7.979-5.895l4.801-.844v-.959c0-1.965-1.15-2.825-3.584-2.825-2.722 0-4.108 1.185-3.905 3.8l-4.852-.39C34.72 7.6 37.78 5.31 43.832 5.31c5.697 0 8.368 1.851 8.368 5.716v7.81c0 1.154.27 1.365 1.2 1.381l.845.016-.574 2.81a8.992 8.992 0 0 1-1.387.113c-3.888 0-4.564-1.364-3.922-4.514l-.338-.081c-1.065 2.89-3.956 4.595-7.928 4.595zm7.218-7.648v-.796l-3.127.585c-3.11.584-4.683 1.266-4.683 2.94v.032c0 1.169.896 1.737 2.553 1.737 2.806 0 5.257-1.884 5.257-4.498zm11.071-9.824h4.937c0 1.266-.237 2.42-.913 4.352l.338.146c1.487-3.248 4.006-4.807 7.692-4.807 4.057 0 6.238 1.884 6.238 5.456v11.903h-4.92V11.968c0-2.209-1.15-3.361-3.465-3.361-3.11 0-4.987 2.37-4.987 6.203v7.924h-4.92zm23.159 8.557v-.21c0-5.75 3.364-8.753 9.754-8.753 5.883 0 9.011 2.387 9.399 6.982l-4.902.536c-.22-3.02-1.69-4.53-4.514-4.53-3.06 0-4.7 1.835-4.7 5.472v.796c0 3.718 1.623 5.602 4.75 5.602 2.79 0 4.345-1.38 4.548-4.108l4.971.536c-.491 4.335-3.736 6.576-9.535 6.576-6.441 0-9.771-3.053-9.771-8.899zM105.75 0h4.92v5.261c-.017 1.608-.254 2.956-.913 4.774l.355.13c1.47-3.231 3.972-4.79 7.692-4.79 4.04 0 6.238 1.884 6.238 5.456v11.903h-4.92V11.968c0-2.209-1.149-3.345-3.465-3.345-3.128 0-4.987 2.354-4.987 6.187v7.924h-4.92zm28.501 23.156c-3.567 0-5.562-1.607-5.562-4.433v-.048c0-3.573 3.178-5.034 7.979-5.895l4.801-.844v-.959c0-1.965-1.149-2.825-3.584-2.825-2.722 0-4.108 1.185-3.905 3.8l-4.852-.39c-.253-3.962 2.807-6.252 8.859-6.252 5.697 0 8.368 1.851 8.368 5.716v7.81c0 1.154.27 1.365 1.2 1.381l.845.016-.574 2.81a8.997 8.997 0 0 1-1.387.113c-3.888 0-4.564-1.364-3.922-4.514l-.338-.081c-1.065 2.89-3.956 4.595-7.928 4.595zm7.218-7.648v-.796l-3.127.585c-3.111.584-4.683 1.266-4.683 2.94v.032c0 1.169.896 1.737 2.553 1.737 2.806 0 5.257-1.884 5.257-4.498zm11.071-9.824h4.937c.033 1.169-.153 2.078-.947 4.352l.321.146c1.826-3.54 3.669-4.742 7.641-5.034l.575 3.93-2.417.178c-3.753.26-5.19 1.9-5.19 6.35v7.128h-4.92zm23.395 17.359c-5.071 0-7.742-2.972-7.742-8.64v-.405c0-5.684 2.671-8.655 7.742-8.655 3.669 0 6.069 1.688 7.27 4.611l.338-.13c-.609-1.964-.862-3.41-.862-5.196V0h4.919v22.734h-4.97c.017-.942.321-2.354.896-4.14l-.355-.114c-1.2 2.939-3.584 4.563-7.236 4.563zm1.86-2.923c3.178 0 4.886-1.965 4.886-5.635V13.9c0-3.686-1.708-5.667-4.886-5.667-3.043 0-4.632 1.884-4.632 5.586v.747c0 3.686 1.589 5.554 4.632 5.554z"/></g></g></g></svg>